HIERARCHY
ROOT Hips
{
    OFFSET   0.000000   0.000000   0.000000
    CHANNELS 6 Xposition Yposition Zposition Zrotation Xrotation Yrotation
    JOINT Chest
    {
        OFFSET   0.000000   8.007230   0.000000
        CHANNELS 3 Zrotation Xrotation Yrotation
        JOINT Chest2
        {
            OFFSET   0.000000  22.077100   0.000000
            CHANNELS 3 Zrotation Xrotation Yrotation
            JOINT Neck
            {
                OFFSET   0.000000  23.254800  -0.000021
                CHANNELS 3 Zrotation Xrotation Yrotation
                JOINT Head
                {
                    OFFSET   0.000000  14.370000   1.956610
                    CHANNELS 3 Zrotation Xrotation Yrotation
                    End Site
                    {
                        OFFSET   0.000000  19.566000   0.000000
                    }
                }
            }
            JOINT LeftCollar
            {
                OFFSET   3.911900  19.017000  -0.467063
                CHANNELS 3 Zrotation Xrotation Yrotation
                JOINT LeftShoulder
                {
                    OFFSET  10.383700   0.000000   0.000000
                    CHANNELS 3 Zrotation Xrotation Yrotation
                    JOINT LeftElbow
                    {
                        OFFSET  26.662100   0.001529   0.000325
                        CHANNELS 3 Zrotation Xrotation Yrotation
                        JOINT LeftWrist
                        {
                            OFFSET  28.869000  -0.000011  -0.000096
                            CHANNELS 3 Zrotation Xrotation Yrotation
                            JOINT LeftFinger0
                            {
                                OFFSET   2.044650  -2.323460   3.252850
                                CHANNELS 3 Zrotation Xrotation Yrotation
                                JOINT LeftFinger01
                                {
                                    OFFSET   3.088130   0.000000   0.000000
                                    CHANNELS 3 Zrotation Xrotation Yrotation
                                    JOINT LeftFinger02
                                    {
                                        OFFSET   2.639460   0.000000   0.000000
                                        CHANNELS 3 Zrotation Xrotation Yrotation
                                        End Site
                                        {
                                            OFFSET   2.582190   0.000000   0.000000
                                        }
                                    }
                                }
                            }
                            JOINT LeftFinger1
                            {
                                OFFSET   8.364480   0.000000   3.252850
                                CHANNELS 3 Zrotation Xrotation Yrotation
                                JOINT LeftFinger11
                                {
                                    OFFSET   4.646930   0.000000   0.000000
                                    CHANNELS 3 Zrotation Xrotation Yrotation
                                    JOINT LeftFinger12
                                    {
                                        OFFSET   2.323460   0.000000   0.000000
                                        CHANNELS 3 Zrotation Xrotation Yrotation
                                        End Site
                                        {
                                            OFFSET   2.273050   0.000000   0.000000
                                        }
                                    }
                                }
                            }
                            JOINT LeftFinger2
                            {
                                OFFSET   8.364480   0.000016   1.078090
                                CHANNELS 3 Zrotation Xrotation Yrotation
                                JOINT LeftFinger21
                                {
                                    OFFSET   5.111620   0.000000   0.000000
                                    CHANNELS 3 Zrotation Xrotation Yrotation
                                    JOINT LeftFinger22
                                    {
                                        OFFSET   2.788160   0.000017   0.000000
                                        CHANNELS 3 Zrotation Xrotation Yrotation
                                        End Site
                                        {
                                            OFFSET   2.727660   0.000000   0.000000
                                        }
                                    }
                                }
                            }
                            JOINT LeftFinger3
                            {
                                OFFSET   7.899780   0.000015  -1.078090
                                CHANNELS 3 Zrotation Xrotation Yrotation
                                JOINT LeftFinger31
                                {
                                    OFFSET   4.646920   0.000000   0.000000
                                    CHANNELS 3 Zrotation Xrotation Yrotation
                                    JOINT LeftFinger32
                                    {
                                        OFFSET   2.323470   0.000000   0.000000
                                        CHANNELS 3 Zrotation Xrotation Yrotation
                                        End Site
                                        {
                                            OFFSET   2.273050   0.000000   0.000000
                                        }
                                    }
                                }
                            }
                            JOINT LeftFinger4
                            {
                                OFFSET   7.435090   0.000000  -3.252850
                                CHANNELS 3 Zrotation Xrotation Yrotation
                                JOINT LeftFinger41
                                {
                                    OFFSET   3.717550   0.000000   0.000000
                                    CHANNELS 3 Zrotation Xrotation Yrotation
                                    JOINT LeftFinger42
                                    {
                                        OFFSET   1.858760   0.000000   0.000000
                                        CHANNELS 3 Zrotation Xrotation Yrotation
                                        End Site
                                        {
                                            OFFSET   1.818440   0.000000   0.000000
                                        }
                                    }
                                }
                            }
                        }
                    }
                }
            }
            JOINT RightCollar
            {
                OFFSET  -3.911900  19.017000  -0.467062
                CHANNELS 3 Zrotation Xrotation Yrotation
                JOINT RightShoulder
                {
                    OFFSET -10.383700   0.000015   0.000000
                    CHANNELS 3 Zrotation Xrotation Yrotation
                    JOINT RightElbow
                    {
                        OFFSET -26.662100   0.001341   0.000385
                        CHANNELS 3 Zrotation Xrotation Yrotation
                        JOINT RightWrist
                        {
                            OFFSET -28.869000   0.000025  -0.000080
                            CHANNELS 3 Zrotation Xrotation Yrotation
                            JOINT RightFinger0
                            {
                                OFFSET  -2.044650  -2.323490   3.252850
                                CHANNELS 3 Zrotation Xrotation Yrotation
                                JOINT RightFinger01
                                {
                                    OFFSET  -3.088130   0.000000   0.000000
                                    CHANNELS 3 Zrotation Xrotation Yrotation
                                    JOINT RightFinger02
                                    {
                                        OFFSET  -2.639460   0.000000   0.000000
                                        CHANNELS 3 Zrotation Xrotation Yrotation
                                        End Site
                                        {
                                            OFFSET  -2.582190   0.000000   0.000000
                                        }
                                    }
                                }
                            }
                            JOINT RightFinger1
                            {
                                OFFSET  -8.364480   0.000000   3.252850
                                CHANNELS 3 Zrotation Xrotation Yrotation
                                JOINT RightFinger11
                                {
                                    OFFSET  -4.646930   0.000000   0.000000
                                    CHANNELS 3 Zrotation Xrotation Yrotation
                                    JOINT RightFinger12
                                    {
                                        OFFSET  -2.323470   0.000000   0.000000
                                        CHANNELS 3 Zrotation Xrotation Yrotation
                                        End Site
                                        {
                                            OFFSET  -2.273050   0.000000   0.000000
                                        }
                                    }
                                }
                            }
                            JOINT RightFinger2
                            {
                                OFFSET  -8.364480   0.000000   1.078090
                                CHANNELS 3 Zrotation Xrotation Yrotation
                                JOINT RightFinger21
                                {
                                    OFFSET  -5.111610   0.000000   0.000000
                                    CHANNELS 3 Zrotation Xrotation Yrotation
                                    JOINT RightFinger22
                                    {
                                        OFFSET  -2.788160   0.000000   0.000000
                                        CHANNELS 3 Zrotation Xrotation Yrotation
                                        End Site
                                        {
                                            OFFSET  -2.727660   0.000000   0.000000
                                        }
                                    }
                                }
                            }
                            JOINT RightFinger3
                            {
                                OFFSET  -7.899780   0.000000  -1.078090
                                CHANNELS 3 Zrotation Xrotation Yrotation
                                JOINT RightFinger31
                                {
                                    OFFSET  -4.646920   0.000000   0.000000
                                    CHANNELS 3 Zrotation Xrotation Yrotation
                                    JOINT RightFinger32
                                    {
                                        OFFSET  -2.323470   0.000000   0.000000
                                        CHANNELS 3 Zrotation Xrotation Yrotation
                                        End Site
                                        {
                                            OFFSET  -2.273050   0.000000   0.000000
                                        }
                                    }
                                }
                            }
                            JOINT RightFinger4
                            {
                                OFFSET  -7.435090   0.000000  -3.252850
                                CHANNELS 3 Zrotation Xrotation Yrotation
                                JOINT RightFinger41
                                {
                                    OFFSET  -3.717550   0.000000   0.000000
                                    CHANNELS 3 Zrotation Xrotation Yrotation
                                    JOINT RightFinger42
                                    {
                                        OFFSET  -1.858770   0.000000   0.000000
                                        CHANNELS 3 Zrotation Xrotation Yrotation
                                        End Site
                                        {
                                            OFFSET  -1.818440   0.000000   0.000000
                                        }
                                    }
                                }
                            }
                        }
                    }
                }
            }
        }
    }
    JOINT LeftHip
    {
        OFFSET   9.783010   0.000000   0.000000
        CHANNELS 3 Zrotation Xrotation Yrotation
        JOINT LeftKnee
        {
            OFFSET   0.000070 -41.789100   0.000028
            CHANNELS 3 Zrotation Xrotation Yrotation
            JOINT LeftAnkle
            {
                OFFSET   0.000087 -41.133200  -0.000100
                CHANNELS 3 Zrotation Xrotation Yrotation
                JOINT LeftToe
                {
                    OFFSET   0.000000  -6.358960  14.674500
                    CHANNELS 3 Zrotation Xrotation Yrotation
                    End Site
                    {
                        OFFSET   0.000000   0.000000   3.913200
                    }
                }
            }
        }
    }
    JOINT RightHip
    {
        OFFSET  -9.783020   0.000000   0.000000
        CHANNELS 3 Zrotation Xrotation Yrotation
        JOINT RightKnee
        {
            OFFSET   0.000044 -41.789100  -0.000870
            CHANNELS 3 Zrotation Xrotation Yrotation
            JOINT RightAnkle
            {
                OFFSET  -0.000090 -41.133200  -0.000245
                CHANNELS 3 Zrotation Xrotation Yrotation
                JOINT RightToe
                {
                    OFFSET   0.000000  -6.358960  14.674500
                    CHANNELS 3 Zrotation Xrotation Yrotation
                    End Site
                    {
                        OFFSET   0.000000   0.000000   3.913200
                    }
                }
            }
        }
    }
}
MOTION
Frames: 4
Frame Time:   0.016667
  0.570375  89.570200  -0.274346  -1.196690   3.395410  -0.479723   0.807742   0.942028  -0.744283   1.627990   1.873390  -1.502090  -0.559355  -0.385383  -0.006501  -0.919211  -0.781636   2.282340  -4.367410   0.924760   9.115040 -79.848600   4.351300   0.802542  -0.484217   5.220360 -13.969700   7.895500  -3.005840  -2.635980  40.642400  35.097900 -51.210800 -32.977100  -0.001365   0.000000 -11.488600   0.000000   0.002945 -32.891100  -1.701620   2.632540 -26.942800   0.003593   0.000413 -18.859900  -0.009948   0.001155 -29.231400  -3.745130   6.660310 -44.174000  -0.012340   0.002284 -29.419900  -0.000447   0.003217 -28.109300  -3.606900   6.732630 -34.355900   0.004731   0.001876 -22.881100  -0.000084   0.002643 -33.067000  -4.189440   6.394940 -49.952000   0.005534   0.003466 -33.268100  -0.002206   0.003928   9.491930   2.701830   5.403090  70.245600  -4.829670  -0.870914   4.304940  -4.824590  12.497400 -17.130300   0.153448   5.150400 -48.446800  30.288800  61.782100   5.397710   0.001716  -0.004083  -2.301150   0.008626   0.000067  30.959400   1.715370   2.856630  25.365500  -0.002541   0.001490  17.755800  -0.011875   0.001521  28.605900  -0.051725  -0.094826  37.485500  -0.002838   0.001363  24.965300   0.002747   0.009321  28.625000  -0.594262  -1.088430  37.973900  -0.013259   0.012910  25.290600   0.000395   0.011638  35.358600  -0.717537  -1.011300  53.046900  -0.002227   0.012809  35.329300   0.001899   0.000749   3.063910  -1.585460  -0.680703  -0.138660   0.044023  11.710800  -2.344660  -2.591840  -0.575639  -0.000000   0.000000   0.000000  -0.384328  -1.071920  -3.543790   1.608300   0.103290 -10.515200  -0.945821  -2.324720  -0.740297   0.000000   0.000000   0.000000
  0.562030  89.570000  -0.279620  -1.197270   3.381860  -0.473740   0.804063   0.959619  -0.730896   1.620650   1.908810  -1.475500  -0.545495  -0.425462  -0.006473  -0.896118  -0.862723   2.304700  -4.364360   0.906479   9.102010 -79.821100   4.470680   0.729430  -0.493654   5.185830 -13.965400   7.915280  -3.036310  -2.632630  40.671500  35.137000 -51.267500 -32.967300   0.005435   0.003975 -11.483500  -0.000099   0.002812 -32.899000  -1.699480   2.626890 -26.949100  -0.003613  -0.006277 -18.864300  -0.010214  -0.005103 -29.248200  -3.745170   6.655590 -44.199000  -0.012895  -0.002589 -29.436500  -0.000489  -0.004345 -28.109500  -3.606910   6.728860 -34.371500  -0.005460  -0.011124 -22.891400  -0.000091  -0.008376 -33.084200  -4.189530   6.390200 -49.977500  -0.007012  -0.016524 -33.285100  -0.002282  -0.011922   9.487240   2.651080   5.387410  70.329000  -4.727890  -0.850917   4.243620  -5.065330  12.548400 -17.068500   0.076840   5.135750 -48.402700  30.246900  61.775800   5.336780   0.001554  -0.004087  -2.331620   0.008631   0.000073  30.945400   1.708330   2.846400  25.354200  -0.002520   0.001454  17.747900  -0.011909   0.001493  28.602600  -0.062183  -0.114004  37.440600  -0.002739   0.001296  24.935400   0.002715   0.009286  28.624800  -0.600677  -1.100290  37.949500  -0.013272   0.012897  25.274300   0.000375   0.011632  35.340800  -0.724815  -1.022580  53.020200  -0.002257   0.012802  35.311500   0.001845   0.000739   3.064440  -1.597380  -0.680930  -0.138709   0.090009  11.710700  -2.354170  -2.614200  -0.576369  -0.000000   0.000000   0.000000  -0.383804  -1.065720  -3.543800   1.608370   0.104911 -10.522100  -0.951589  -2.319000  -0.738128   0.000000   0.000000   0.000000
  0.547531  89.569800  -0.289594  -1.197970   3.353280  -0.467750   0.798186   0.993491  -0.705412   1.608900   1.976980  -1.424920  -0.523716  -0.501249  -0.006444  -0.860362  -1.016100   2.352240  -4.359800   0.880789   9.067340 -79.775100   4.672300   0.598194  -0.513810   5.119840 -13.960500   7.946310  -3.084190  -2.626970  40.714300  35.195000 -51.354000 -32.956100   0.012234   0.007950 -11.478100  -0.000238   0.002593 -32.914300  -1.695160   2.616660 -26.961500  -0.011586  -0.012966 -18.873000  -0.010480  -0.011360 -29.273600  -3.745230   6.648470 -44.236600  -0.013450  -0.008284 -29.461600  -0.000559  -0.012335 -28.109900  -3.606920   6.723120 -34.398800  -0.016651  -0.024123 -22.909600  -0.000103  -0.019470 -33.113100  -4.189700   6.382840 -50.020500  -0.020890  -0.036515 -33.313700  -0.002409  -0.027982   9.471290   2.569170   5.347870  70.495900  -4.584390  -0.781521   4.128510  -5.452930  12.671000 -16.947200  -0.091547   5.107860 -48.217300  30.111100  61.718800   5.275860   0.001328  -0.004095  -2.362090   0.008642   0.000095  30.932700   1.688680   2.815310  25.342800  -0.002473   0.001374  17.740000  -0.011994   0.001430  28.596300  -0.084013  -0.154074  37.354600  -0.002553   0.001171  24.878200   0.002630   0.009211  28.624500  -0.607092  -1.112140  37.908300  -0.013298   0.012868  25.246900   0.000328   0.011620  35.304600  -0.732093  -1.033870  52.966200  -0.002331   0.012788  35.275500   0.001726   0.000726   3.067230  -1.609300  -0.681158  -0.138758   0.135994  11.710500  -2.363680  -2.636560  -0.577100   0.000000   0.000000  -0.000000  -0.382434  -1.059520  -3.543870   1.608770   0.116269 -10.534400  -0.959284  -2.313270  -0.730110   0.000000   0.000000   0.000000
  0.534464  89.569800  -0.299928  -1.197740   3.320400  -0.471281   0.793179   1.029050  -0.679161   1.598780   2.048520  -1.372840  -0.508733  -0.579134  -0.006509  -0.836086  -1.173790   2.410870  -4.354060   0.869390   9.015250 -79.738300   4.836540   0.473606  -0.539739   5.048730 -13.969900   7.968030  -3.123340  -2.621050  40.735200  35.221400 -51.407100 -32.954500   0.011812   0.007681 -11.477800  -0.000299   0.002384 -32.932500  -1.689990   2.606640 -26.976200  -0.012479  -0.012900 -18.883300  -0.008621  -0.011348 -29.287100  -3.745260   6.644670 -44.256600  -0.010502  -0.009241 -29.475000  -0.000629  -0.012835 -28.112000  -3.607000   6.719930 -34.424100  -0.017818  -0.024052 -22.926500  -0.000115  -0.019558 -33.137000  -4.189890   6.378290 -50.056200  -0.022443  -0.036437 -33.337400  -0.002536  -0.028226   9.439980   2.509180   5.287250  70.698600  -4.519240  -0.648936   4.000240  -5.742630  12.820900 -16.811700  -0.279958   5.078780 -47.826000  29.828700  61.477300   5.301700   0.001228  -0.004103  -2.349160   0.008658   0.000142  30.938900   1.645290   2.742090  25.345400  -0.002407   0.001263  17.741800  -0.012125   0.001340  28.587800  -0.119046  -0.218470  37.234800  -0.002307   0.001008  24.798400   0.002499   0.009104  28.624800  -0.598229  -1.095960  37.865800  -0.013331   0.012828  25.218600   0.000265   0.011606  35.249300  -0.720670  -1.019130  52.883300  -0.002444   0.012766  35.220200   0.001556   0.000720   3.074220  -1.561310  -0.681086  -0.139379   0.079968  11.710300  -2.361430  -2.606080  -0.568890  -0.000000   0.000000   0.000000  -0.378855  -1.125480  -3.544160   1.604130   0.244794 -10.549400  -0.960439  -2.338700  -0.713951  -0.000000   0.000000   0.000000
